<?xml version="1.0" encoding="utf-8"?>
<!-- Generator: Adobe Illustrator 28.1.0, SVG Export Plug-In . SVG Version: 6.00 Build 0)  -->
<svg version="1.1" id="Layer_1" xmlns="http://www.w3.org/2000/svg" xmlns:xlink="http://www.w3.org/1999/xlink" x="0px" y="0px"
	 viewBox="0 0 414.4 536.2" style="enable-background:new 0 0 414.4 536.2;" xml:space="preserve">
<style type="text/css">
	.st0{fill:#FFFFFF;}
	.st1{fill:#B30838;stroke:#000000;stroke-width:16;}
</style>
<path d="M197.9,40.7c0,0-49,93-73,152s-50,125-59,163s-22.3,100-21,120c1.1,17.5,1.2,20.4,9.2,32.4c4.8,7.2,12,11.1,22.8,11.6
	c13,0.6,32.6-10.8,46-18c14.2-7.7,29.8-20.5,52-23c23.9-2.6,36-4,56,2s30.6,9.8,41,17c11.7,8.1,12.1,10.7,20.2,17
	c9.7,7.5,15.1,8.7,25.3,9.1s18.1-2.3,24.5-12.5c6.4-10.2,11-26.3,12.8-40c1.6-12.4,0-56.2-6.8-87.2s-5.7-25.3-12.5-53.6
	s-18.5-68.7-40-119.3S268,147.9,251,113.5s-34.7-62.3-39.3-69.8C207.2,36.1,203.6,29,197.9,40.7z"/>
<path class="st0" d="M297.4,255c-40.5-3.6-35.8-2.8-80.8-1.9c-50.2,0.9-103.9,9.4-103.9,9.4c-14.8,38.2-27.1,72.7-32.8,96.6
	c-12.8,53.9-20.7,97.6-20.7,113.5c0,0.8,0,1.6,0.1,2.3l0.1,0.9c1,15.9,1,15.9,6.8,24.5c1.5,2.3,3.8,4.8,11.4,5.2
	c7.9,0.3,25.5-9.2,34.9-14.3l3.6-2c3-1.6,6.2-3.6,9.6-5.6c12.2-7.5,27.5-16.8,47.7-19c24.3-2.7,38.9-4.3,61.7,2.5
	c18.9,5.7,32.3,10.1,45.1,19c7.8,5.4,11.4,8.9,14.5,11.9c1.9,1.8,3.5,3.4,6.2,5.5c7,5.4,9.5,5.8,17,6c6.4,0.2,8.8-0.9,11.8-5.7
	c4.7-7.5,9-21.2,10.7-34.2c0.3-2.2,0.5-6.1,0.5-11.1c0-17.2-1.9-47.7-7-71.1c-5.1-23-5.7-25.5-8.5-37.3l-3.9-16
	C315.3,307.7,307.6,282.5,297.4,255z"/>
<path d="M95.2,283.1c0,0-6.7,3.8-14.3,10.1s-8.4,8.8-19.7,15.1s-24.8,13-35.7,21S6.6,343.1,5,345.2s-3.4,3.8-0.8,10.5
	s1.7,5.5,6.3,13.9s14.3,21.4,14.3,21.4s-1.7,0.8-1.3,7.1s2.1,9.2,5,10.5s0.4,4.6-0.8,11.3s-0.4,11.8-0.4,11.8s-8.4,0-13.9,1.7
	s-9.7,1.7-9.2,7.1s0.4,7.6,8,12.2s5.5,5,13,6.3s15.1,4.6,20.6-0.4S60,394.3,60,394.3s-5.5-8-8.4-10.1s-8.4-5-10.1-3.8
	s-5.5,2.9-5.5,2.9s-14.3-22.2-16.8-26.9s-5-4.2-1.7-7.1s7.6-8,15.1-13.4c7.6-5.5,16.8-11.3,22.2-14.7s11.8-6.7,11.8-6.7
	s-1.3-2.5,2.1,4.6s6.3,14.7,8,15.9s13.4-38.2,13.4-38.2L95.2,283.1z"/>
<path d="M311.4,271.3c0,0,9.2,2.1,16.4,8c7.1,5.9,8.4,4.2,12.2,10.1s5,7.6,5,7.6s24.8,18.9,31.9,25.2c7.1,6.3,17.2,14.7,22.2,21
	s8.4,9.7,6.3,14.3c-2.1,4.6-8,10.9-11.8,15.1s-11.3,12.6-11.3,12.6s1.7,6.7,0.4,13c-1.3,6.3-3.4,10.9-3.4,10.9s6.3,4.6,8,11.3
	c1.7,6.7,1.7,13.9,1.7,13.9s9.7,0.8,13.4,3.4s5.9,4.6,2.5,8.4s-10.1,9.7-16.4,14.3c-6.3,4.6-7.1,7.1-12.6,9.7
	c-5.5,2.5-7.1,1.7-13-0.8c-5.9-2.5-10.9-5.9-10.9-5.9l-9.7-73.5l12.6-0.4c0,0-1.3-4.2,3.4-7.6c4.6-3.4,10.9-2.9,13-3.4
	c2.1-0.4,4.2-6.7,8.8-12.2c4.6-5.5,9.2-8,9.2-10.9s-5-11.3-7.1-14.3c-2.1-2.9-17.6-18.9-21-22.2S344.9,307,344.9,307s0.4,0-2.9,9.2
	c-3.4,9.2-7.6,16.4-10.1,19.3c-2.5,2.9-22.2-64.2-22.2-64.2"/>
<ellipse class="st1" cx="208.8" cy="257.5" rx="74.4" ry="65.3"/>
<ellipse transform="matrix(0.9225 -0.386 0.386 0.9225 -75.2169 86.5456)" class="st0" cx="177.9" cy="230.6" rx="19.8" ry="13.7"/>
</svg>
